<svg width="16" height="15" viewBox="0 0 16 15" fill="none" xmlns="http://www.w3.org/2000/svg">
<path d="M11.0443 10.6655C10.8869 10.6655 10.736 10.6053 10.6247 10.4981C10.5134 10.391 10.4508 10.2456 10.4508 10.0941V4.95121H5.10959C4.95219 4.95121 4.80123 4.891 4.68994 4.78384C4.57864 4.67668 4.51611 4.53133 4.51611 4.37978C4.51611 4.22823 4.57864 4.08288 4.68994 3.97572C4.80123 3.86855 4.95219 3.80835 5.10959 3.80835H11.0443C11.2017 3.80835 11.3527 3.86855 11.464 3.97572C11.5752 4.08288 11.6378 4.22823 11.6378 4.37978V10.0941C11.6378 10.2456 11.5752 10.391 11.464 10.4981C11.3527 10.6053 11.2017 10.6655 11.0443 10.6655Z" fill="white"/>
<path d="M5.10946 10.6654C4.9921 10.6654 4.87738 10.6319 4.77981 10.5691C4.68224 10.5063 4.60619 10.4171 4.56128 10.3127C4.51637 10.2083 4.50462 10.0934 4.52751 9.98256C4.5504 9.87173 4.6069 9.76992 4.68987 9.69L10.6246 3.97572C10.7362 3.87017 10.8866 3.81134 11.0431 3.81202C11.1995 3.8127 11.3494 3.87284 11.46 3.97936C11.5706 4.08588 11.6331 4.23015 11.6338 4.38079C11.6345 4.53143 11.5734 4.67624 11.4638 4.78372L5.52904 10.498C5.47401 10.5512 5.40861 10.5933 5.3366 10.622C5.2646 10.6508 5.1874 10.6655 5.10946 10.6654Z" fill="white"/>
</svg>
