<svg width="56" height="77" viewBox="0 0 56 77" fill="none" xmlns="http://www.w3.org/2000/svg">
<path d="M26.334 29.7034C27.179 29.7034 27.8611 30.3883 27.8611 31.2305V37.3391L27.8446 67.8872L27.8335 75.4676C27.8335 76.8677 26.1048 77.5304 25.1631 76.4949C23.4261 74.5894 21.7775 72.5928 20.2061 70.5134C12.9958 60.9529 7.51414 49.6334 4.09259 37.3391C3.39116 34.8344 2.7781 32.2827 2.2755 29.7007C0.778752 22.3854 0 14.7773 0 7.05055C0 6.44025 0.0165685 5.82995 0.0165685 5.20308C5.83788 2.97729 12.2502 1.36731 18.5133 0.560945C19.4246 0.444961 20.2255 1.16848 20.2255 2.08807V6.71088C20.2255 7.47583 19.6621 8.10822 18.9055 8.21316C15.564 8.67157 12.1756 9.37852 8.86452 10.3174C8.17966 10.5108 7.71573 11.1625 7.7461 11.875C8.01397 17.9724 8.78996 23.9318 10.052 29.7062C10.6015 32.302 11.2588 34.8371 12.021 37.3446C13.4459 42.1055 15.2105 46.6979 17.2955 51.0639C17.9997 52.5413 20.2117 52.058 20.2144 50.4205L20.2255 37.3446V31.2361C20.2255 30.391 20.9103 29.7089 21.7526 29.7089H26.334V29.7034Z" fill="url(#paint0_linear_262_1192)"/>
<path d="M55.6921 7.02297C55.6921 14.7663 54.9133 22.3743 53.4166 29.7062C52.8974 32.2883 52.2871 34.8372 51.5829 37.3446C48.6198 47.9903 44.124 57.8932 38.2916 66.5534C37.4494 67.8044 35.4832 67.1941 35.4832 65.6863V57.0261C35.4832 56.7693 35.5494 56.518 35.6737 56.2943C38.9765 50.4177 41.6773 44.0552 43.6849 37.3419C44.4499 34.8372 45.0905 32.3021 45.6567 29.7035C46.9159 23.8877 47.6947 17.8427 47.9625 11.6844C47.9929 10.9692 47.5262 10.312 46.8358 10.1214C43.7843 9.28191 40.5644 8.64952 37.2202 8.227C36.3089 8.11102 35.4997 8.8373 35.4997 9.75689V28.1708C35.4997 29.0158 34.8149 29.7035 33.9671 29.7035H29.394C28.549 29.7035 27.8613 29.0186 27.8613 28.1708V1.54133C27.8613 0.68249 28.5683 -0.0189405 29.4271 0.000390206C31.4845 0.0473363 33.5114 0.166081 35.4997 0.359388C42.398 0.994541 48.8849 2.45263 54.7034 4.66738C55.2944 4.89383 55.6893 5.46547 55.6921 6.09786C55.6921 6.40439 55.6921 6.71092 55.6921 7.01745V7.02297Z" fill="url(#paint1_linear_262_1192)"/>
<defs>
<linearGradient id="paint0_linear_262_1192" x1="5.17512" y1="45.8308" x2="35.5824" y2="28.2757" gradientUnits="userSpaceOnUse">
<stop stop-color="#67CAD5"/>
<stop offset="0.23" stop-color="#5192BD"/>
<stop offset="0.44" stop-color="#3F63AA"/>
<stop offset="0.55" stop-color="#3952A3"/>
<stop offset="1" stop-color="#323C77"/>
</linearGradient>
<linearGradient id="paint1_linear_262_1192" x1="20.847" y1="40.7551" x2="62.1596" y2="16.9037" gradientUnits="userSpaceOnUse">
<stop stop-color="#67CAD5"/>
<stop offset="0.23" stop-color="#5192BD"/>
<stop offset="0.44" stop-color="#3F63AA"/>
<stop offset="0.55" stop-color="#3952A3"/>
<stop offset="1" stop-color="#323C77"/>
</linearGradient>
</defs>
</svg>
